<svg width="278" height="173" viewBox="0 0 278 173" fill="none" xmlns="http://www.w3.org/2000/svg">
<rect x="0.888672" y="0.90332" width="277" height="172" rx="15" fill="white"/>
<path d="M0.888672 132.903H277.889V157.903C277.889 166.188 271.173 172.903 262.889 172.903H15.8887C7.60441 172.903 0.888672 166.188 0.888672 157.903V132.903Z" fill="white"/>
<path d="M56.8707 147.174C59.4195 147.174 61.2286 145.666 61.4556 143.454L61.463 143.373H59.3096L59.295 143.432C59.0606 144.56 58.1451 145.299 56.878 145.299C55.2081 145.299 54.1754 143.893 54.1754 141.623V141.608C54.1754 139.337 55.2081 137.938 56.8707 137.938C58.1304 137.938 59.0753 138.744 59.3023 139.931V139.982H61.4556V139.894C61.2506 137.66 59.3756 136.063 56.8707 136.063C53.8018 136.063 51.9122 138.18 51.9122 141.608V141.623C51.9122 145.05 53.8092 147.174 56.8707 147.174ZM65.2697 147.028C66.3244 147.028 67.174 146.581 67.5841 145.834H67.716V146.903H69.8253V141.396C69.8253 139.674 68.6168 138.664 66.4782 138.664C64.4494 138.664 63.1163 139.601 62.9479 141.015L62.9406 141.081H64.9181L64.9328 141.051C65.1012 140.575 65.5919 140.304 66.361 140.304C67.2399 140.304 67.716 140.7 67.716 141.396V142.062L65.7677 142.179C63.7609 142.296 62.6403 143.146 62.6403 144.596V144.611C62.6403 146.076 63.7316 147.028 65.2697 147.028ZM64.7277 144.479V144.464C64.7277 143.878 65.1745 143.534 66.09 143.476L67.716 143.373V143.966C67.716 144.816 66.9762 145.468 65.9874 145.468C65.2477 145.468 64.7277 145.094 64.7277 144.479ZM71.7058 146.903H73.8444V142.238C73.8444 141.146 74.445 140.436 75.4338 140.436C76.4445 140.436 76.9133 141.037 76.9133 142.172V146.903H79.052V141.688C79.052 139.762 78.0852 138.664 76.2907 138.664C75.1408 138.664 74.3425 139.213 73.9763 140.084H73.8444V138.839H71.7058V146.903ZM84.4627 147.072C86.5647 147.072 87.8245 145.944 88.0442 144.186L88.0515 144.142H86.074L86.0594 144.171C85.8689 144.977 85.3489 145.395 84.47 145.395C83.3274 145.395 82.6902 144.494 82.6902 142.86V142.846C82.6902 141.234 83.3201 140.341 84.47 140.341C85.3855 140.341 85.9202 140.854 86.0594 141.637L86.0667 141.652H88.0589V141.63C87.8684 139.828 86.6014 138.664 84.4627 138.664C81.9358 138.664 80.5149 140.194 80.5149 142.846V142.86C80.5149 145.541 81.9431 147.072 84.4627 147.072ZM93.0594 147.072C95.4178 147.072 96.4579 145.709 96.7069 144.699L96.7215 144.625H94.7294L94.7074 144.669C94.5609 144.977 94.0409 145.475 93.1034 145.475C91.9681 145.475 91.2577 144.706 91.2357 143.38H96.7875V142.714C96.7875 140.275 95.3226 138.664 92.9715 138.664C90.6205 138.664 89.119 140.312 89.119 142.875V142.882C89.119 145.468 90.6058 147.072 93.0594 147.072ZM93.0082 140.268C93.9383 140.268 94.6048 140.868 94.7367 142.04H91.2577C91.3895 140.897 92.078 140.268 93.0082 140.268ZM98.3969 146.903H100.536V135.756H98.3969V146.903Z" fill="#111111"/>
<path d="M197.171 147.174C200.291 147.174 202.254 145.036 202.254 141.623V141.608C202.254 138.195 200.284 136.063 197.171 136.063C194.058 136.063 192.081 138.188 192.081 141.608V141.623C192.081 145.036 194.029 147.174 197.171 147.174ZM197.171 145.299C195.428 145.299 194.337 143.856 194.337 141.623V141.608C194.337 139.367 195.45 137.938 197.171 137.938C198.885 137.938 199.998 139.367 199.998 141.608V141.623C199.998 143.856 198.892 145.299 197.171 145.299ZM204.142 146.903H206.354V143.673L207.401 142.414L210.47 146.903H213.121L208.998 140.963L212.85 136.334H210.389L206.486 141.081H206.354V136.334H204.142V146.903Z" fill="#06C755"/>
<path d="M48.7371 46.9033H51.2137L52.0496 44.1689H56.0262L56.8621 46.9033H59.3465L55.4246 35.6299H52.6512L48.7371 46.9033ZM53.9715 37.8799H54.1121L55.4871 42.4033H52.5887L53.9715 37.8799ZM63.4855 47.0361C64.6965 47.0361 65.6105 46.4971 66.0559 45.5674H66.1965V46.9033H68.4777V35.0127H66.1965V39.6768H66.0559C65.6262 38.7393 64.6652 38.1611 63.4855 38.1611C61.3059 38.1611 59.9934 39.8252 59.9934 42.5908V42.6064C59.9934 45.3564 61.3371 47.0361 63.4855 47.0361ZM64.259 45.1455C63.0559 45.1455 62.3137 44.1924 62.3137 42.6064V42.5908C62.3137 41.0205 63.0559 40.0518 64.259 40.0518C65.4621 40.0518 66.2199 41.0205 66.2199 42.5986V42.6143C66.2199 44.1924 65.4699 45.1455 64.259 45.1455ZM73.7574 47.0361C74.9684 47.0361 75.8824 46.4971 76.3277 45.5674H76.4684V46.9033H78.7496V35.0127H76.4684V39.6768H76.3277C75.898 38.7393 74.9371 38.1611 73.7574 38.1611C71.5777 38.1611 70.2652 39.8252 70.2652 42.5908V42.6064C70.2652 45.3564 71.609 47.0361 73.7574 47.0361ZM74.5309 45.1455C73.3277 45.1455 72.5855 44.1924 72.5855 42.6064V42.5908C72.5855 41.0205 73.3277 40.0518 74.5309 40.0518C75.734 40.0518 76.4918 41.0205 76.4918 42.5986V42.6143C76.4918 44.1924 75.7418 45.1455 74.5309 45.1455ZM85.9574 49.9346C88.0824 49.9346 89.2152 49.1689 89.9809 46.8955L92.9105 38.3018H90.5043L88.6996 44.8174H88.5434L86.7387 38.3018H84.2309L87.2543 46.9033L87.1762 47.2314C87.0121 47.9033 86.5434 48.2158 85.7309 48.2158C85.5199 48.2158 85.2934 48.208 85.1371 48.1924V49.9111C85.4027 49.9268 85.6918 49.9346 85.9574 49.9346ZM97.8074 47.083C100.456 47.083 102.05 45.4111 102.05 42.6064V42.5908C102.05 39.8096 100.432 38.1143 97.8074 38.1143C95.1824 38.1143 93.5652 39.8174 93.5652 42.5908V42.6064C93.5652 45.4033 95.159 47.083 97.8074 47.083ZM97.8074 45.2939C96.5887 45.2939 95.9012 44.3018 95.9012 42.6064V42.5908C95.9012 40.9111 96.5965 39.9033 97.8074 39.9033C99.0105 39.9033 99.7137 40.9111 99.7137 42.5908V42.6064C99.7137 44.3018 99.0184 45.2939 97.8074 45.2939ZM106.603 47.083C107.829 47.083 108.704 46.5127 109.095 45.5752H109.236V46.9033H111.517V38.3018H109.236V43.2705C109.236 44.4346 108.626 45.1924 107.501 45.1924C106.423 45.1924 105.962 44.5596 105.962 43.3408V38.3018H103.681V43.8643C103.681 45.9111 104.673 47.083 106.603 47.083ZM113.656 46.9033H115.937V42.0908C115.937 40.8721 116.757 40.1299 118.054 40.1299C118.406 40.1299 118.757 40.1846 119.101 40.2627V38.2705C118.875 38.208 118.554 38.1611 118.25 38.1611C117.132 38.1611 116.351 38.708 116.078 39.6377H115.937V38.3018H113.656V46.9033ZM124.676 46.9033H129.739C132.145 46.9033 133.637 45.6611 133.637 43.6846V43.6689C133.637 42.2236 132.551 41.1064 131.059 40.9893V40.8486C132.215 40.6768 133.098 39.6377 133.098 38.4502V38.4346C133.098 36.7002 131.793 35.6299 129.606 35.6299H124.676V46.9033ZM129.004 37.3799C130.129 37.3799 130.778 37.9268 130.778 38.8408V38.8564C130.778 39.7861 130.082 40.3174 128.809 40.3174H127.036V37.3799H129.004ZM129.082 41.8721C130.473 41.8721 131.231 42.4346 131.231 43.4814V43.4971C131.231 44.5674 130.496 45.1455 129.137 45.1455H127.036V41.8721H129.082ZM136.557 36.9814C137.261 36.9814 137.839 36.4189 137.839 35.7158C137.839 35.0049 137.261 34.4424 136.557 34.4424C135.854 34.4424 135.268 35.0049 135.268 35.7158C135.268 36.4189 135.854 36.9814 136.557 36.9814ZM135.409 46.9033H137.69V38.3018H135.409V46.9033ZM139.837 46.9033H142.118V42.0908C142.118 40.8721 142.939 40.1299 144.236 40.1299C144.587 40.1299 144.939 40.1846 145.282 40.2627V38.2705C145.056 38.208 144.736 38.1611 144.431 38.1611C143.314 38.1611 142.532 38.708 142.259 39.6377H142.118V38.3018H139.837V46.9033ZM150.586 46.9346C151.023 46.9346 151.445 46.8877 151.726 46.833V45.1377C151.507 45.1611 151.351 45.1768 151.054 45.1768C150.281 45.1768 149.953 44.833 149.953 44.0596V40.0205H151.726V38.3018H149.953V36.2471H147.648V38.3018H146.32V40.0205H147.648V44.583C147.648 46.2549 148.492 46.9346 150.586 46.9346ZM153.553 46.9033H155.834V41.9268C155.834 40.7627 156.475 40.0049 157.529 40.0049C158.607 40.0049 159.107 40.6455 159.107 41.8564V46.9033H161.389V41.3408C161.389 39.2861 160.357 38.1143 158.443 38.1143C157.217 38.1143 156.365 38.7002 155.975 39.6299H155.834V35.0127H153.553V46.9033ZM166.52 47.0361C167.731 47.0361 168.645 46.4971 169.09 45.5674H169.231V46.9033H171.512V35.0127H169.231V39.6768H169.09C168.661 38.7393 167.7 38.1611 166.52 38.1611C164.34 38.1611 163.028 39.8252 163.028 42.5908V42.6064C163.028 45.3564 164.371 47.0361 166.52 47.0361ZM167.293 45.1455C166.09 45.1455 165.348 44.1924 165.348 42.6064V42.5908C165.348 41.0205 166.09 40.0518 167.293 40.0518C168.496 40.0518 169.254 41.0205 169.254 42.5986V42.6143C169.254 44.1924 168.504 45.1455 167.293 45.1455ZM176.065 47.0361C177.19 47.0361 178.096 46.5596 178.534 45.7627H178.675V46.9033H180.925V41.0283C180.925 39.1924 179.636 38.1143 177.354 38.1143C175.19 38.1143 173.768 39.1143 173.589 40.6221L173.581 40.6924H175.69L175.706 40.6611C175.886 40.1533 176.409 39.8643 177.229 39.8643C178.167 39.8643 178.675 40.2861 178.675 41.0283V41.7393L176.596 41.8643C174.456 41.9893 173.261 42.8955 173.261 44.4424V44.458C173.261 46.0205 174.425 47.0361 176.065 47.0361ZM175.487 44.3174V44.3018C175.487 43.6768 175.964 43.3096 176.94 43.2471L178.675 43.1377V43.7705C178.675 44.6768 177.886 45.3721 176.831 45.3721C176.042 45.3721 175.487 44.9736 175.487 44.3174ZM183.798 49.9346C185.923 49.9346 187.056 49.1689 187.821 46.8955L190.751 38.3018H188.345L186.54 44.8174H186.384L184.579 38.3018H182.071L185.095 46.9033L185.017 47.2314C184.853 47.9033 184.384 48.2158 183.571 48.2158C183.361 48.2158 183.134 48.208 182.978 48.1924V49.9111C183.243 49.9268 183.532 49.9346 183.798 49.9346ZM199.232 47.0361C200.443 47.0361 201.357 46.4971 201.803 45.5674H201.943V46.9033H204.225V35.0127H201.943V39.6768H201.803C201.373 38.7393 200.412 38.1611 199.232 38.1611C197.053 38.1611 195.74 39.8252 195.74 42.5908V42.6064C195.74 45.3564 197.084 47.0361 199.232 47.0361ZM200.006 45.1455C198.803 45.1455 198.061 44.1924 198.061 42.6064V42.5908C198.061 41.0205 198.803 40.0518 200.006 40.0518C201.209 40.0518 201.967 41.0205 201.967 42.5986V42.6143C201.967 44.1924 201.217 45.1455 200.006 45.1455ZM208.778 47.0361C209.903 47.0361 210.809 46.5596 211.246 45.7627H211.387V46.9033H213.637V41.0283C213.637 39.1924 212.348 38.1143 210.067 38.1143C207.903 38.1143 206.481 39.1143 206.301 40.6221L206.293 40.6924H208.403L208.418 40.6611C208.598 40.1533 209.121 39.8643 209.942 39.8643C210.879 39.8643 211.387 40.2861 211.387 41.0283V41.7393L209.309 41.8643C207.168 41.9893 205.973 42.8955 205.973 44.4424V44.458C205.973 46.0205 207.137 47.0361 208.778 47.0361ZM208.2 44.3174V44.3018C208.2 43.6768 208.676 43.3096 209.653 43.2471L211.387 43.1377V43.7705C211.387 44.6768 210.598 45.3721 209.543 45.3721C208.754 45.3721 208.2 44.9736 208.2 44.3174ZM219.292 46.9346C219.729 46.9346 220.151 46.8877 220.432 46.833V45.1377C220.214 45.1611 220.057 45.1768 219.761 45.1768C218.987 45.1768 218.659 44.833 218.659 44.0596V40.0205H220.432V38.3018H218.659V36.2471H216.354V38.3018H215.026V40.0205H216.354V44.583C216.354 46.2549 217.198 46.9346 219.292 46.9346ZM225.9 47.083C228.415 47.083 229.525 45.6299 229.79 44.5518L229.806 44.4736H227.681L227.657 44.5205C227.501 44.8486 226.946 45.3799 225.946 45.3799C224.736 45.3799 223.978 44.5596 223.954 43.1455H229.876V42.4346C229.876 39.833 228.314 38.1143 225.806 38.1143C223.298 38.1143 221.696 39.8721 221.696 42.6064V42.6143C221.696 45.3721 223.282 47.083 225.9 47.083ZM225.845 39.8252C226.837 39.8252 227.548 40.4658 227.689 41.7158H223.978C224.118 40.4971 224.853 39.8252 225.845 39.8252Z" fill="black"/>
<path d="M30.1656 67.9033H31.3082V59.772H34.2599V58.7437H27.214V59.772H30.1656V67.9033ZM35.7983 67.9033H36.9028V63.8535C36.9028 62.6538 37.5947 61.9175 38.6865 61.9175C39.7783 61.9175 40.2861 62.5078 40.2861 63.7393V67.9033H41.3906V63.4727C41.3906 61.8477 40.5337 60.9399 38.9976 60.9399C37.9883 60.9399 37.3472 61.3652 37.0044 62.0889H36.9028V58.3438H35.7983V67.9033ZM43.2401 67.9033H44.3446V63.6631C44.3446 62.6602 45.0937 61.9937 46.1474 61.9937C46.3886 61.9937 46.598 62.019 46.8266 62.0571V60.9844C46.7187 60.9653 46.4838 60.9399 46.2743 60.9399C45.3476 60.9399 44.7064 61.3589 44.4462 62.0762H44.3446V61.0605H43.2401V67.9033ZM50.6629 68.0239C52.6116 68.0239 53.8177 66.6782 53.8177 64.4883V64.4756C53.8177 62.2793 52.6116 60.9399 50.6629 60.9399C48.7142 60.9399 47.5081 62.2793 47.5081 64.4756V64.4883C47.5081 66.6782 48.7142 68.0239 50.6629 68.0239ZM50.6629 67.0464C49.368 67.0464 48.638 66.1006 48.638 64.4883V64.4756C48.638 62.8569 49.368 61.9175 50.6629 61.9175C51.9578 61.9175 52.6878 62.8569 52.6878 64.4756V64.4883C52.6878 66.1006 51.9578 67.0464 50.6629 67.0464ZM57.673 68.0239C58.676 68.0239 59.3679 67.6113 59.7043 66.8813H59.8059V67.9033H60.9104V61.0605H59.8059V65.1104C59.8059 66.3101 59.1647 67.0464 57.9587 67.0464C56.8669 67.0464 56.4226 66.4561 56.4226 65.2246V61.0605H55.3181V65.4912C55.3181 67.1099 56.1179 68.0239 57.673 68.0239ZM65.6417 70.3154C67.5079 70.3154 68.6886 69.3379 68.6886 67.8081V61.0605H67.5841V62.1904H67.5079C67.089 61.416 66.3399 60.9399 65.3751 60.9399C63.5851 60.9399 62.4806 62.3301 62.4806 64.2471V64.2598C62.4806 66.1768 63.5787 67.5479 65.3497 67.5479C66.2892 67.5479 67.0636 67.1226 67.4952 66.3672H67.5968V67.751C67.5968 68.7603 66.8668 69.3379 65.6417 69.3379C64.6578 69.3379 64.0484 68.9697 63.9278 68.4492L63.9215 68.4429H62.7789L62.7662 68.4492C62.9376 69.5728 63.9913 70.3154 65.6417 70.3154ZM65.5909 66.5703C64.3214 66.5703 63.6105 65.6182 63.6105 64.2598V64.2471C63.6105 62.8887 64.3214 61.9175 65.5909 61.9175C66.8541 61.9175 67.6222 62.8887 67.6222 64.2471V64.2598C67.6222 65.6182 66.8605 66.5703 65.5909 66.5703ZM70.6587 67.9033H71.7632V63.8535C71.7632 62.6538 72.4551 61.9175 73.5469 61.9175C74.6387 61.9175 75.1465 62.5078 75.1465 63.7393V67.9033H76.251V63.4727C76.251 61.8477 75.394 60.9399 73.8579 60.9399C72.8486 60.9399 72.2075 61.3652 71.8647 62.0889H71.7632V58.3438H70.6587V67.9033ZM84.0379 67.9541C84.2537 67.9541 84.4632 67.9287 84.679 67.8906V66.9512C84.4759 66.9702 84.368 66.9766 84.1712 66.9766C83.4603 66.9766 83.181 66.6528 83.181 65.8467V61.9746H84.679V61.0605H83.181V59.2896H82.0384V61.0605H80.9593V61.9746H82.0384V66.126C82.0384 67.4336 82.6287 67.9541 84.0379 67.9541ZM86.2429 67.9033H87.3474V63.8535C87.3474 62.6538 88.0393 61.9175 89.1311 61.9175C90.2229 61.9175 90.7307 62.5078 90.7307 63.7393V67.9033H91.8352V63.4727C91.8352 61.8477 90.9782 60.9399 89.4421 60.9399C88.4328 60.9399 87.7917 61.3652 87.4489 62.0889H87.3474V58.3438H86.2429V67.9033ZM96.4776 68.0239C98.0899 68.0239 99.0675 67.1099 99.3023 66.1831L99.315 66.1323H98.2105L98.1852 66.1895C98.0011 66.6021 97.4298 67.04 96.503 67.04C95.2843 67.04 94.5035 66.2148 94.4718 64.7993H99.3976V64.3677C99.3976 62.3237 98.2677 60.9399 96.4078 60.9399C94.548 60.9399 93.3419 62.3872 93.3419 64.501V64.5073C93.3419 66.6528 94.5226 68.0239 96.4776 68.0239ZM96.4015 61.9238C97.4107 61.9238 98.1598 62.5649 98.274 63.917H94.4908C94.6114 62.6157 95.3858 61.9238 96.4015 61.9238ZM106.816 68.0239C108.371 68.0239 109.558 67.1797 109.558 65.9609V65.9482C109.558 64.9707 108.936 64.4121 107.648 64.1011L106.594 63.8472C105.788 63.6504 105.445 63.3584 105.445 62.895V62.8823C105.445 62.2793 106.042 61.8604 106.854 61.8604C107.68 61.8604 108.213 62.2349 108.359 62.7744H109.444C109.292 61.6572 108.295 60.9399 106.861 60.9399C105.407 60.9399 104.315 61.7969 104.315 62.9331V62.9395C104.315 63.9233 104.893 64.4819 106.175 64.7866L107.235 65.0405C108.079 65.2437 108.429 65.5674 108.429 66.0308V66.0435C108.429 66.6655 107.775 67.1035 106.854 67.1035C105.978 67.1035 105.433 66.729 105.248 66.1577H104.119C104.246 67.2876 105.293 68.0239 106.816 68.0239ZM113.915 68.0239C115.528 68.0239 116.505 67.1099 116.74 66.1831L116.753 66.1323H115.648L115.623 66.1895C115.439 66.6021 114.867 67.04 113.941 67.04C112.722 67.04 111.941 66.2148 111.909 64.7993H116.835V64.3677C116.835 62.3237 115.705 60.9399 113.846 60.9399C111.986 60.9399 110.78 62.3872 110.78 64.501V64.5073C110.78 66.6528 111.96 68.0239 113.915 68.0239ZM113.839 61.9238C114.848 61.9238 115.597 62.5649 115.712 63.917H111.929C112.049 62.6157 112.824 61.9238 113.839 61.9238ZM120.83 67.9541C121.046 67.9541 121.256 67.9287 121.471 67.8906V66.9512C121.268 66.9702 121.16 66.9766 120.964 66.9766C120.253 66.9766 119.973 66.6528 119.973 65.8467V61.9746H121.471V61.0605H119.973V59.2896H118.831V61.0605H117.752V61.9746H118.831V66.126C118.831 67.4336 119.421 67.9541 120.83 67.9541ZM125.403 67.9541C125.619 67.9541 125.828 67.9287 126.044 67.8906V66.9512C125.841 66.9702 125.733 66.9766 125.536 66.9766C124.825 66.9766 124.546 66.6528 124.546 65.8467V61.9746H126.044V61.0605H124.546V59.2896H123.403V61.0605H122.324V61.9746H123.403V66.126C123.403 67.4336 123.994 67.9541 125.403 67.9541ZM128.128 59.7402C128.547 59.7402 128.89 59.3975 128.89 58.9785C128.89 58.5596 128.547 58.2168 128.128 58.2168C127.709 58.2168 127.367 58.5596 127.367 58.9785C127.367 59.3975 127.709 59.7402 128.128 59.7402ZM127.57 67.9033H128.674V61.0605H127.57V67.9033ZM130.606 67.9033H131.711V63.8535C131.711 62.6538 132.403 61.9175 133.495 61.9175C134.586 61.9175 135.094 62.5078 135.094 63.7393V67.9033H136.199V63.4727C136.199 61.8477 135.342 60.9399 133.806 60.9399C132.796 60.9399 132.155 61.3652 131.812 62.0889H131.711V61.0605H130.606V67.9033ZM140.867 70.3154C142.733 70.3154 143.913 69.3379 143.913 67.8081V61.0605H142.809V62.1904H142.733C142.314 61.416 141.565 60.9399 140.6 60.9399C138.81 60.9399 137.705 62.3301 137.705 64.2471V64.2598C137.705 66.1768 138.804 67.5479 140.575 67.5479C141.514 67.5479 142.288 67.1226 142.72 66.3672H142.822V67.751C142.822 68.7603 142.092 69.3379 140.867 69.3379C139.883 69.3379 139.273 68.9697 139.153 68.4492L139.146 68.4429H138.004L137.991 68.4492C138.162 69.5728 139.216 70.3154 140.867 70.3154ZM140.816 66.5703C139.546 66.5703 138.835 65.6182 138.835 64.2598V64.2471C138.835 62.8887 139.546 61.9175 140.816 61.9175C142.079 61.9175 142.847 62.8887 142.847 64.2471V64.2598C142.847 65.6182 142.085 66.5703 140.816 66.5703ZM148.169 68.0239C149.724 68.0239 150.911 67.1797 150.911 65.9609V65.9482C150.911 64.9707 150.289 64.4121 149 64.1011L147.946 63.8472C147.14 63.6504 146.798 63.3584 146.798 62.895V62.8823C146.798 62.2793 147.394 61.8604 148.207 61.8604C149.032 61.8604 149.565 62.2349 149.711 62.7744H150.797C150.644 61.6572 149.648 60.9399 148.213 60.9399C146.759 60.9399 145.668 61.7969 145.668 62.9331V62.9395C145.668 63.9233 146.245 64.4819 147.528 64.7866L148.588 65.0405C149.432 65.2437 149.781 65.5674 149.781 66.0308V66.0435C149.781 66.6655 149.127 67.1035 148.207 67.1035C147.331 67.1035 146.785 66.729 146.601 66.1577H145.471C145.598 67.2876 146.645 68.0239 148.169 68.0239ZM152.195 70.2329H153.014L154.011 66.6211H152.748L152.195 70.2329ZM160.274 70.3027C161.487 70.3027 162.052 69.8584 162.617 68.3223L165.289 61.0605H164.127L162.255 66.6909H162.153L160.274 61.0605H159.094L161.626 67.9097L161.499 68.3159C161.252 69.103 160.871 69.3887 160.243 69.3887C160.09 69.3887 159.919 69.3823 159.786 69.3569V70.2646C159.938 70.29 160.128 70.3027 160.274 70.3027ZM169.157 68.0239C171.106 68.0239 172.312 66.6782 172.312 64.4883V64.4756C172.312 62.2793 171.106 60.9399 169.157 60.9399C167.208 60.9399 166.002 62.2793 166.002 64.4756V64.4883C166.002 66.6782 167.208 68.0239 169.157 68.0239ZM169.157 67.0464C167.862 67.0464 167.132 66.1006 167.132 64.4883V64.4756C167.132 62.8569 167.862 61.9175 169.157 61.9175C170.452 61.9175 171.182 62.8569 171.182 64.4756V64.4883C171.182 66.1006 170.452 67.0464 169.157 67.0464ZM176.167 68.0239C177.17 68.0239 177.862 67.6113 178.198 66.8813H178.3V67.9033H179.404V61.0605H178.3V65.1104C178.3 66.3101 177.659 67.0464 176.453 67.0464C175.361 67.0464 174.917 66.4561 174.917 65.2246V61.0605H173.812V65.4912C173.812 67.1099 174.612 68.0239 176.167 68.0239ZM187.623 68.0239C189.267 68.0239 190.188 67.1416 190.467 65.9038L190.479 65.834L189.388 65.8403L189.375 65.8784C189.121 66.6401 188.537 67.0464 187.617 67.0464C186.398 67.0464 185.611 66.0371 185.611 64.4629V64.4502C185.611 62.9077 186.385 61.9175 187.617 61.9175C188.601 61.9175 189.21 62.4634 189.381 63.1362L189.388 63.1553H190.486L190.479 63.1172C190.276 61.8984 189.28 60.9399 187.617 60.9399C185.7 60.9399 184.481 62.3237 184.481 64.4502V64.4629C184.481 66.6338 185.706 68.0239 187.623 68.0239ZM193.827 68.0239C194.747 68.0239 195.465 67.624 195.896 66.894H195.998V67.9033H197.102V63.2188C197.102 61.7969 196.169 60.9399 194.5 60.9399C193.04 60.9399 191.999 61.6636 191.821 62.7363L191.815 62.7744H192.919L192.926 62.7554C193.103 62.2222 193.643 61.9175 194.462 61.9175C195.484 61.9175 195.998 62.3745 195.998 63.2188V63.8408L194.037 63.9614C192.443 64.0566 191.542 64.7612 191.542 65.98V65.9927C191.542 67.2368 192.526 68.0239 193.827 68.0239ZM192.672 65.9673V65.9546C192.672 65.2754 193.129 64.9072 194.17 64.8438L195.998 64.7295V65.3516C195.998 66.3291 195.179 67.0654 194.056 67.0654C193.262 67.0654 192.672 66.6592 192.672 65.9673ZM198.971 67.9033H200.076V63.8535C200.076 62.6538 200.767 61.9175 201.859 61.9175C202.951 61.9175 203.459 62.5078 203.459 63.7393V67.9033H204.563V63.4727C204.563 61.8477 203.706 60.9399 202.17 60.9399C201.161 60.9399 200.52 61.3652 200.177 62.0889H200.076V61.0605H198.971V67.9033ZM209.919 67.9033H211.024V63.6631C211.024 62.6602 211.773 61.9937 212.826 61.9937C213.067 61.9937 213.277 62.019 213.505 62.0571V60.9844C213.398 60.9653 213.163 60.9399 212.953 60.9399C212.026 60.9399 211.385 61.3589 211.125 62.0762H211.024V61.0605H209.919V67.9033ZM217.323 68.0239C218.935 68.0239 219.913 67.1099 220.147 66.1831L220.16 66.1323H219.056L219.03 66.1895C218.846 66.6021 218.275 67.04 217.348 67.04C216.129 67.04 215.349 66.2148 215.317 64.7993H220.243V64.3677C220.243 62.3237 219.113 60.9399 217.253 60.9399C215.393 60.9399 214.187 62.3872 214.187 64.501V64.5073C214.187 66.6528 215.368 68.0239 217.323 68.0239ZM217.247 61.9238C218.256 61.9238 219.005 62.5649 219.119 63.917H215.336C215.457 62.6157 216.231 61.9238 217.247 61.9238ZM224.606 68.0239C226.25 68.0239 227.17 67.1416 227.45 65.9038L227.462 65.834L226.371 65.8403L226.358 65.8784C226.104 66.6401 225.52 67.0464 224.6 67.0464C223.381 67.0464 222.594 66.0371 222.594 64.4629V64.4502C222.594 62.9077 223.368 61.9175 224.6 61.9175C225.583 61.9175 226.193 62.4634 226.364 63.1362L226.371 63.1553H227.469L227.462 63.1172C227.259 61.8984 226.263 60.9399 224.6 60.9399C222.683 60.9399 221.464 62.3237 221.464 64.4502V64.4629C221.464 66.6338 222.689 68.0239 224.606 68.0239ZM231.724 68.0239C233.336 68.0239 234.314 67.1099 234.549 66.1831L234.561 66.1323H233.457L233.431 66.1895C233.247 66.6021 232.676 67.04 231.749 67.04C230.531 67.04 229.75 66.2148 229.718 64.7993H234.644V64.3677C234.644 62.3237 233.514 60.9399 231.654 60.9399C229.794 60.9399 228.588 62.3872 228.588 64.501V64.5073C228.588 66.6528 229.769 68.0239 231.724 68.0239ZM231.648 61.9238C232.657 61.9238 233.406 62.5649 233.52 63.917H229.737C229.858 62.6157 230.632 61.9238 231.648 61.9238ZM236.792 59.7402C237.211 59.7402 237.553 59.3975 237.553 58.9785C237.553 58.5596 237.211 58.2168 236.792 58.2168C236.373 58.2168 236.03 58.5596 236.03 58.9785C236.03 59.3975 236.373 59.7402 236.792 59.7402ZM236.233 67.9033H237.338V61.0605H236.233V67.9033ZM241.206 67.9033H242.323L244.856 61.0605H243.688L241.815 66.6973H241.713L239.841 61.0605H238.673L241.206 67.9033ZM248.705 68.0239C250.317 68.0239 251.294 67.1099 251.529 66.1831L251.542 66.1323H250.438L250.412 66.1895C250.228 66.6021 249.657 67.04 248.73 67.04C247.511 67.04 246.73 66.2148 246.699 64.7993H251.625V64.3677C251.625 62.3237 250.495 60.9399 248.635 60.9399C246.775 60.9399 245.569 62.3872 245.569 64.501V64.5073C245.569 66.6528 246.75 68.0239 248.705 68.0239ZM248.628 61.9238C249.638 61.9238 250.387 62.5649 250.501 63.917H246.718C246.838 62.6157 247.613 61.9238 248.628 61.9238ZM20.8017 83.9033H21.9062V79.6631C21.9062 78.6602 22.6552 77.9937 23.7089 77.9937C23.9501 77.9937 24.1596 78.019 24.3881 78.0571V76.9844C24.2802 76.9653 24.0453 76.9399 23.8358 76.9399C22.9091 76.9399 22.268 77.3589 22.0077 78.0762H21.9062V77.0605H20.8017V83.9033ZM28.2054 84.0239C29.8177 84.0239 30.7952 83.1099 31.0301 82.1831L31.0428 82.1323H29.9383L29.9129 82.1895C29.7288 82.6021 29.1575 83.04 28.2308 83.04C27.012 83.04 26.2312 82.2148 26.1995 80.7993H31.1253V80.3677C31.1253 78.3237 29.9954 76.9399 28.1355 76.9399C26.2757 76.9399 25.0696 78.3872 25.0696 80.501V80.5073C25.0696 82.6528 26.2503 84.0239 28.2054 84.0239ZM28.1292 77.9238C29.1385 77.9238 29.8875 78.5649 30.0018 79.917H26.2186C26.3392 78.6157 27.1136 77.9238 28.1292 77.9238ZM35.4885 84.0239C37.1325 84.0239 38.0529 83.1416 38.3322 81.9038L38.3449 81.834L37.2531 81.8403L37.2404 81.8784C36.9865 82.6401 36.4025 83.0464 35.4821 83.0464C34.2634 83.0464 33.4763 82.0371 33.4763 80.4629V80.4502C33.4763 78.9077 34.2507 77.9175 35.4821 77.9175C36.466 77.9175 37.0754 78.4634 37.2468 79.1362L37.2531 79.1553H38.3513L38.3449 79.1172C38.1418 77.8984 37.1452 76.9399 35.4821 76.9399C33.5651 76.9399 32.3464 78.3237 32.3464 80.4502V80.4629C32.3464 82.6338 33.5715 84.0239 35.4885 84.0239ZM42.6256 84.0239C44.5743 84.0239 45.7804 82.6782 45.7804 80.4883V80.4756C45.7804 78.2793 44.5743 76.9399 42.6256 76.9399C40.6769 76.9399 39.4708 78.2793 39.4708 80.4756V80.4883C39.4708 82.6782 40.6769 84.0239 42.6256 84.0239ZM42.6256 83.0464C41.3307 83.0464 40.6007 82.1006 40.6007 80.4883V80.4756C40.6007 78.8569 41.3307 77.9175 42.6256 77.9175C43.9205 77.9175 44.6505 78.8569 44.6505 80.4756V80.4883C44.6505 82.1006 43.9205 83.0464 42.6256 83.0464ZM47.3442 83.9033H48.4487V79.6631C48.4487 78.6982 49.1279 77.9175 50.0229 77.9175C50.8862 77.9175 51.4448 78.4443 51.4448 79.2568V83.9033H52.5493V79.5044C52.5493 78.6348 53.1777 77.9175 54.1299 77.9175C55.0947 77.9175 55.5581 78.4189 55.5581 79.4282V83.9033H56.6626V79.1743C56.6626 77.7397 55.8818 76.9399 54.4854 76.9399C53.5396 76.9399 52.7588 77.416 52.3906 78.1396H52.2891C51.9717 77.4287 51.3242 76.9399 50.3975 76.9399C49.5024 76.9399 48.855 77.3652 48.5503 78.1016H48.4487V77.0605H47.3442V83.9033ZM58.5058 83.9033H59.6103V79.6631C59.6103 78.6982 60.2895 77.9175 61.1845 77.9175C62.0478 77.9175 62.6063 78.4443 62.6063 79.2568V83.9033H63.7108V79.5044C63.7108 78.6348 64.3393 77.9175 65.2914 77.9175C66.2562 77.9175 66.7196 78.4189 66.7196 79.4282V83.9033H67.8241V79.1743C67.8241 77.7397 67.0434 76.9399 65.6469 76.9399C64.7011 76.9399 63.9203 77.416 63.5521 78.1396H63.4506C63.1332 77.4287 62.4857 76.9399 61.559 76.9399C60.664 76.9399 60.0165 77.3652 59.7118 78.1016H59.6103V77.0605H58.5058V83.9033ZM72.4603 84.0239C74.0726 84.0239 75.0501 83.1099 75.285 82.1831L75.2977 82.1323H74.1932L74.1678 82.1895C73.9837 82.6021 73.4124 83.04 72.4856 83.04C71.2669 83.04 70.4861 82.2148 70.4544 80.7993H75.3802V80.3677C75.3802 78.3237 74.2503 76.9399 72.3904 76.9399C70.5306 76.9399 69.3245 78.3872 69.3245 80.501V80.5073C69.3245 82.6528 70.5052 84.0239 72.4603 84.0239ZM72.3841 77.9238C73.3934 77.9238 74.1424 78.5649 74.2566 79.917H70.4734C70.594 78.6157 71.3685 77.9238 72.3841 77.9238ZM76.944 83.9033H78.0485V79.8535C78.0485 78.6538 78.7404 77.9175 79.8322 77.9175C80.924 77.9175 81.4318 78.5078 81.4318 79.7393V83.9033H82.5363V79.4727C82.5363 77.8477 81.6794 76.9399 80.1433 76.9399C79.134 76.9399 78.4929 77.3652 78.1501 78.0889H78.0485V77.0605H76.944V83.9033ZM86.9122 84.0239C87.8643 84.0239 88.6261 83.5732 89.045 82.8115H89.1466V83.9033H90.2511V74.3438H89.1466V78.1396H89.045C88.6705 77.4097 87.8517 76.9399 86.9122 76.9399C85.1729 76.9399 84.0431 78.3301 84.0431 80.4756V80.4883C84.0431 82.6211 85.1793 84.0239 86.9122 84.0239ZM87.1661 83.0464C85.9156 83.0464 85.1729 82.0815 85.1729 80.4883V80.4756C85.1729 78.8823 85.9156 77.9175 87.1661 77.9175C88.4102 77.9175 89.172 78.895 89.172 80.4756V80.4883C89.172 82.0688 88.4102 83.0464 87.1661 83.0464ZM94.1001 84.0239C95.0205 84.0239 95.7378 83.624 96.1694 82.894H96.271V83.9033H97.3755V79.2188C97.3755 77.7969 96.4424 76.9399 94.7729 76.9399C93.313 76.9399 92.272 77.6636 92.0942 78.7363L92.0879 78.7744H93.1924L93.1987 78.7554C93.3765 78.2222 93.916 77.9175 94.7349 77.9175C95.7568 77.9175 96.271 78.3745 96.271 79.2188V79.8408L94.3096 79.9614C92.7163 80.0566 91.8149 80.7612 91.8149 81.98V81.9927C91.8149 83.2368 92.7988 84.0239 94.1001 84.0239ZM92.9448 81.9673V81.9546C92.9448 81.2754 93.4019 80.9072 94.4429 80.8438L96.271 80.7295V81.3516C96.271 82.3291 95.4521 83.0654 94.3286 83.0654C93.5352 83.0654 92.9448 82.6592 92.9448 81.9673ZM101.675 83.9541C101.891 83.9541 102.1 83.9287 102.316 83.8906V82.9512C102.113 82.9702 102.005 82.9766 101.808 82.9766C101.098 82.9766 100.818 82.6528 100.818 81.8467V77.9746H102.316V77.0605H100.818V75.2896H99.6757V77.0605H98.5966V77.9746H99.6757V82.126C99.6757 83.4336 100.266 83.9541 101.675 83.9541ZM104.401 75.7402C104.82 75.7402 105.162 75.3975 105.162 74.9785C105.162 74.5596 104.82 74.2168 104.401 74.2168C103.982 74.2168 103.639 74.5596 103.639 74.9785C103.639 75.3975 103.982 75.7402 104.401 75.7402ZM103.842 83.9033H104.947V77.0605H103.842V83.9033ZM109.691 84.0239C111.639 84.0239 112.845 82.6782 112.845 80.4883V80.4756C112.845 78.2793 111.639 76.9399 109.691 76.9399C107.742 76.9399 106.536 78.2793 106.536 80.4756V80.4883C106.536 82.6782 107.742 84.0239 109.691 84.0239ZM109.691 83.0464C108.396 83.0464 107.666 82.1006 107.666 80.4883V80.4756C107.666 78.8569 108.396 77.9175 109.691 77.9175C110.986 77.9175 111.716 78.8569 111.716 80.4756V80.4883C111.716 82.1006 110.986 83.0464 109.691 83.0464ZM114.409 83.9033H115.514V79.8535C115.514 78.6538 116.206 77.9175 117.297 77.9175C118.389 77.9175 118.897 78.5078 118.897 79.7393V83.9033H120.002V79.4727C120.002 77.8477 119.145 76.9399 117.608 76.9399C116.599 76.9399 115.958 77.3652 115.615 78.0889H115.514V77.0605H114.409V83.9033ZM124.2 84.0239C125.755 84.0239 126.942 83.1797 126.942 81.9609V81.9482C126.942 80.9707 126.32 80.4121 125.031 80.1011L123.978 79.8472C123.171 79.6504 122.829 79.3584 122.829 78.895V78.8823C122.829 78.2793 123.425 77.8604 124.238 77.8604C125.063 77.8604 125.596 78.2349 125.742 78.7744H126.828C126.675 77.6572 125.679 76.9399 124.244 76.9399C122.791 76.9399 121.699 77.7969 121.699 78.9331V78.9395C121.699 79.9233 122.276 80.4819 123.559 80.7866L124.619 81.0405C125.463 81.2437 125.812 81.5674 125.812 82.0308V82.0435C125.812 82.6655 125.158 83.1035 124.238 83.1035C123.362 83.1035 122.816 82.729 122.632 82.1577H121.502C121.629 83.2876 122.676 84.0239 124.2 84.0239ZM132.469 83.9033H133.574V77.9746H135.129V77.0605H133.574V76.3306C133.574 75.5815 133.891 75.1943 134.678 75.1943C134.875 75.1943 135.059 75.2007 135.192 75.2261V74.3438C134.964 74.2993 134.722 74.2803 134.456 74.2803C133.155 74.2803 132.469 74.9341 132.469 76.2988V77.0605H131.333V77.9746H132.469V83.9033ZM139.092 84.0239C141.041 84.0239 142.247 82.6782 142.247 80.4883V80.4756C142.247 78.2793 141.041 76.9399 139.092 76.9399C137.143 76.9399 135.937 78.2793 135.937 80.4756V80.4883C135.937 82.6782 137.143 84.0239 139.092 84.0239ZM139.092 83.0464C137.797 83.0464 137.067 82.1006 137.067 80.4883V80.4756C137.067 78.8569 137.797 77.9175 139.092 77.9175C140.387 77.9175 141.117 78.8569 141.117 80.4756V80.4883C141.117 82.1006 140.387 83.0464 139.092 83.0464ZM143.811 83.9033H144.915V79.6631C144.915 78.6602 145.664 77.9937 146.718 77.9937C146.959 77.9937 147.169 78.019 147.397 78.0571V76.9844C147.289 76.9653 147.054 76.9399 146.845 76.9399C145.918 76.9399 145.277 77.3589 145.017 78.0762H144.915V77.0605H143.811V83.9033ZM153.997 84.0239C154.917 84.0239 155.635 83.624 156.066 82.894H156.168V83.9033H157.272V79.2188C157.272 77.7969 156.339 76.9399 154.67 76.9399C153.21 76.9399 152.169 77.6636 151.991 78.7363L151.985 78.7744H153.089L153.096 78.7554C153.273 78.2222 153.813 77.9175 154.632 77.9175C155.654 77.9175 156.168 78.3745 156.168 79.2188V79.8408L154.206 79.9614C152.613 80.0566 151.712 80.7612 151.712 81.98V81.9927C151.712 83.2368 152.696 84.0239 153.997 84.0239ZM152.842 81.9673V81.9546C152.842 81.2754 153.299 80.9072 154.34 80.8438L156.168 80.7295V81.3516C156.168 82.3291 155.349 83.0654 154.225 83.0654C153.432 83.0654 152.842 82.6592 152.842 81.9673ZM162.647 86.1885H163.752V82.8242H163.853C164.228 83.5542 165.047 84.0239 165.986 84.0239C167.725 84.0239 168.855 82.6338 168.855 80.4883V80.4756C168.855 78.3428 167.719 76.9399 165.986 76.9399C165.034 76.9399 164.272 77.3906 163.853 78.1523H163.752V77.0605H162.647V86.1885ZM165.732 83.0464C164.488 83.0464 163.726 82.0688 163.726 80.4883V80.4756C163.726 78.895 164.488 77.9175 165.732 77.9175C166.983 77.9175 167.725 78.8823 167.725 80.4756V80.4883C167.725 82.0815 166.983 83.0464 165.732 83.0464ZM173.225 84.0239C174.837 84.0239 175.815 83.1099 176.049 82.1831L176.062 82.1323H174.958L174.932 82.1895C174.748 82.6021 174.177 83.04 173.25 83.04C172.031 83.04 171.251 82.2148 171.219 80.7993H176.145V80.3677C176.145 78.3237 175.015 76.9399 173.155 76.9399C171.295 76.9399 170.089 78.3872 170.089 80.501V80.5073C170.089 82.6528 171.27 84.0239 173.225 84.0239ZM173.149 77.9238C174.158 77.9238 174.907 78.5649 175.021 79.917H171.238C171.358 78.6157 172.133 77.9238 173.149 77.9238ZM177.708 83.9033H178.813V79.6631C178.813 78.6602 179.562 77.9937 180.616 77.9937C180.857 77.9937 181.066 78.019 181.295 78.0571V76.9844C181.187 76.9653 180.952 76.9399 180.743 76.9399C179.816 76.9399 179.175 77.3589 178.915 78.0762H178.813V77.0605H177.708V83.9033ZM184.731 84.0239C186.287 84.0239 187.474 83.1797 187.474 81.9609V81.9482C187.474 80.9707 186.851 80.4121 185.563 80.1011L184.509 79.8472C183.703 79.6504 183.36 79.3584 183.36 78.895V78.8823C183.36 78.2793 183.957 77.8604 184.769 77.8604C185.595 77.8604 186.128 78.2349 186.274 78.7744H187.359C187.207 77.6572 186.21 76.9399 184.776 76.9399C183.322 76.9399 182.23 77.7969 182.23 78.9331V78.9395C182.23 79.9233 182.808 80.4819 184.09 80.7866L185.15 81.0405C185.995 81.2437 186.344 81.5674 186.344 82.0308V82.0435C186.344 82.6655 185.69 83.1035 184.769 83.1035C183.893 83.1035 183.348 82.729 183.163 82.1577H182.034C182.161 83.2876 183.208 84.0239 184.731 84.0239ZM191.849 84.0239C193.798 84.0239 195.004 82.6782 195.004 80.4883V80.4756C195.004 78.2793 193.798 76.9399 191.849 76.9399C189.901 76.9399 188.695 78.2793 188.695 80.4756V80.4883C188.695 82.6782 189.901 84.0239 191.849 84.0239ZM191.849 83.0464C190.555 83.0464 189.825 82.1006 189.825 80.4883V80.4756C189.825 78.8569 190.555 77.9175 191.849 77.9175C193.144 77.9175 193.874 78.8569 193.874 80.4756V80.4883C193.874 82.1006 193.144 83.0464 191.849 83.0464ZM196.568 83.9033H197.673V79.8535C197.673 78.6538 198.364 77.9175 199.456 77.9175C200.548 77.9175 201.056 78.5078 201.056 79.7393V83.9033H202.16V79.4727C202.16 77.8477 201.303 76.9399 199.767 76.9399C198.758 76.9399 198.117 77.3652 197.774 78.0889H197.673V77.0605H196.568V83.9033ZM205.889 84.0239C206.809 84.0239 207.526 83.624 207.958 82.894H208.06V83.9033H209.164V79.2188C209.164 77.7969 208.231 76.9399 206.562 76.9399C205.102 76.9399 204.061 77.6636 203.883 78.7363L203.877 78.7744H204.981L204.987 78.7554C205.165 78.2222 205.705 77.9175 206.524 77.9175C207.546 77.9175 208.06 78.3745 208.06 79.2188V79.8408L206.098 79.9614C204.505 80.0566 203.604 80.7612 203.604 81.98V81.9927C203.604 83.2368 204.587 84.0239 205.889 84.0239ZM204.733 81.9673V81.9546C204.733 81.2754 205.191 80.9072 206.232 80.8438L208.06 80.7295V81.3516C208.06 82.3291 207.241 83.0654 206.117 83.0654C205.324 83.0654 204.733 82.6592 204.733 81.9673ZM211.096 83.9033H212.201V74.3438H211.096V83.9033ZM214.755 75.7402C215.174 75.7402 215.517 75.3975 215.517 74.9785C215.517 74.5596 215.174 74.2168 214.755 74.2168C214.336 74.2168 213.993 74.5596 213.993 74.9785C213.993 75.3975 214.336 75.7402 214.755 75.7402ZM214.196 83.9033H215.301V77.0605H214.196V83.9033ZM217.074 83.9033H222.343V82.9893H218.394V82.8877L222.324 77.8794V77.0605H217.08V77.9746H221.022V78.0762L217.074 83.1035V83.9033ZM226.693 84.0239C228.305 84.0239 229.283 83.1099 229.518 82.1831L229.53 82.1323H228.426L228.401 82.1895C228.216 82.6021 227.645 83.04 226.718 83.04C225.5 83.04 224.719 82.2148 224.687 80.7993H229.613V80.3677C229.613 78.3237 228.483 76.9399 226.623 76.9399C224.763 76.9399 223.557 78.3872 223.557 80.501V80.5073C223.557 82.6528 224.738 84.0239 226.693 84.0239ZM226.617 77.9238C227.626 77.9238 228.375 78.5649 228.489 79.917H224.706C224.827 78.6157 225.601 77.9238 226.617 77.9238ZM233.703 84.0239C234.655 84.0239 235.417 83.5732 235.836 82.8115H235.938V83.9033H237.042V74.3438H235.938V78.1396H235.836C235.462 77.4097 234.643 76.9399 233.703 76.9399C231.964 76.9399 230.834 78.3301 230.834 80.4756V80.4883C230.834 82.6211 231.97 84.0239 233.703 84.0239ZM233.957 83.0464C232.707 83.0464 231.964 82.0815 231.964 80.4883V80.4756C231.964 78.8823 232.707 77.9175 233.957 77.9175C235.201 77.9175 235.963 78.895 235.963 80.4756V80.4883C235.963 82.0688 235.201 83.0464 233.957 83.0464ZM242.582 83.9033H243.686V74.3438H242.582V83.9033ZM246.241 75.7402C246.659 75.7402 247.002 75.3975 247.002 74.9785C247.002 74.5596 246.659 74.2168 246.241 74.2168C245.822 74.2168 245.479 74.5596 245.479 74.9785C245.479 75.3975 245.822 75.7402 246.241 75.7402ZM245.682 83.9033H246.786V77.0605H245.682V83.9033ZM251.067 84.0239C252.622 84.0239 253.809 83.1797 253.809 81.9609V81.9482C253.809 80.9707 253.187 80.4121 251.899 80.1011L250.845 79.8472C250.039 79.6504 249.696 79.3584 249.696 78.895V78.8823C249.696 78.2793 250.293 77.8604 251.105 77.8604C251.93 77.8604 252.464 78.2349 252.61 78.7744H253.695C253.543 77.6572 252.546 76.9399 251.112 76.9399C249.658 76.9399 248.566 77.7969 248.566 78.9331V78.9395C248.566 79.9233 249.144 80.4819 250.426 80.7866L251.486 81.0405C252.33 81.2437 252.679 81.5674 252.679 82.0308V82.0435C252.679 82.6655 252.026 83.1035 251.105 83.1035C250.229 83.1035 249.683 82.729 249.499 82.1577H248.369C248.496 83.2876 249.544 84.0239 251.067 84.0239ZM257.741 83.9541C257.957 83.9541 258.166 83.9287 258.382 83.8906V82.9512C258.179 82.9702 258.071 82.9766 257.874 82.9766C257.163 82.9766 256.884 82.6528 256.884 81.8467V77.9746H258.382V77.0605H256.884V75.2896H255.741V77.0605H254.662V77.9746H255.741V82.126C255.741 83.4336 256.332 83.9541 257.741 83.9541Z" fill="#777777"/>
</svg>